SILVERTORRENT Clean Verified Torrents Download
  
http://silvertorrent.org/

--------------------------------------------------
 
http://www.shotpix.com/images/30310879991403227658.jpg

General
Complete name :Ice.Age.4.Continental.Drift.2012.DVDRip.XviD.AC3-3LT0N.avi
Format : AVI
Format/Info : Audio Video Interleave
File size : 1.36 GiB
Duration : 1h 27mn
Overall bit rate : 2 224 Kbps

Video
ID : 0
Format : MPEG-4 Visual
Format profile : Advanced Simple@L5
Format settings, BVOP : 2
Format settings, QPel : No
Format settings, GMC : No warppoints
Format settings, Matrix : Default (H.263)
Codec ID : XVID
Codec ID/Hint : XviD
Duration : 1h 27mn
Bit rate : 1 769 Kbps
Width : 720 pixels
Height : 304 pixels
Display aspect ratio : 2.35:1
Frame rate : 23.976 fps
Color space : YUV
Chroma subsampling : 4:2:0
Bit depth : 8 bits
Scan type : Progressive
Compression mode : Lossy
Bits/(Pixel*Frame) : 0.337
Stream size : 1.08 GiB (80%)
Writing library : XviD 1.2.1 (UTC 2008-12-04)

Audio
ID : 1
Format : AC-3
Format/Info : Audio Coding 3
Mode extension : CM (complete main)
Codec ID : 2000
Duration : 1h 27mn
Bit rate mode : Constant
Bit rate : 448 Kbps
Channel(s) : 6 channels
Channel positions : Front: L C R, Side: L R, LFE
Sampling rate : 48.0 KHz
Bit depth : 16 bits
Compression mode : Lossy
Stream size : 281 MiB (20%)
Alignment : Aligned on interleaves
Interleave, duration : 64 ms (1.53 video frames)
Interleave, preload duration : 192 ms
Title : English - 3LT0N


IMDB:http://www.imdb.com/title/tt1667889/

Screen Shots: 
http://i.minus.com/i0SNCsshO43K7.png 
http://i.minus.com/ixqEFKrCMVI38.png 
http://i.minus.com/iv1jCuzSkNihE.png 
http://i.minus.com/i6mssxYuGH02I.png 
http://i.minus.com/i6mssxYuGH02I.png

Cheep SeedBox: http://www.secureboxes.net/?r=st	